<svg id="visual" viewBox="0 0 900 600" width="900" height="600" xmlns="http://www.w3.org/2000/svg" xmlns:xlink="http://www.w3.org/1999/xlink" version="1.1"><rect x="0" y="0" width="900" height="600" fill="#002233"></rect><path d="M135 0L144.8 12.5C154.7 25 174.3 50 170.5 75C166.7 100 139.3 125 139.8 150C140.3 175 168.7 200 172.3 225C176 250 155 275 140.5 300C126 325 118 350 128.3 375C138.7 400 167.3 425 177.3 450C187.3 475 178.7 500 175.8 525C173 550 176 575 177.5 587.5L179 600L0 600L0 587.5C0 575 0 550 0 525C0 500 0 475 0 450C0 425 0 400 0 375C0 350 0 325 0 300C0 275 0 250 0 225C0 200 0 175 0 150C0 125 0 100 0 75C0 50 0 25 0 12.5L0 0Z" fill="#0066FF" stroke-linecap="round" stroke-linejoin="miter"></path></svg>