<svg id="visual" viewBox="0 0 900 600" width="900" height="600" xmlns="http://www.w3.org/2000/svg" xmlns:xlink="http://www.w3.org/1999/xlink" version="1.1"><rect x="0" y="0" width="900" height="600" fill="#002233"></rect><path d="M183 0L173.7 12.5C164.3 25 145.7 50 133.7 75C121.7 100 116.3 125 107.5 150C98.7 175 86.3 200 101.2 225C116 250 158 275 166.7 300C175.3 325 150.7 350 129.3 375C108 400 90 425 95.5 450C101 475 130 500 145.7 525C161.3 550 163.7 575 164.8 587.5L166 600L0 600L0 587.5C0 575 0 550 0 525C0 500 0 475 0 450C0 425 0 400 0 375C0 350 0 325 0 300C0 275 0 250 0 225C0 200 0 175 0 150C0 125 0 100 0 75C0 50 0 25 0 12.5L0 0Z" fill="#0066FF" stroke-linecap="round" stroke-linejoin="miter"></path></svg>